G04 EAGLE Gerber RS-274X export*
G75*
%MOMM*%
%FSLAX34Y34*%
%LPD*%
%INSoldermask Top*%
%IPPOS*%
%AMOC8*
5,1,8,0,0,1.08239X$1,22.5*%
G01*
%ADD10R,1.341600X1.601600*%
%ADD11R,1.101600X1.176600*%
%ADD12R,0.651600X1.301600*%
%ADD13R,1.501600X1.501600*%
%ADD14R,1.101600X4.701600*%
%ADD15R,1.701600X3.501600*%
%ADD16R,1.301600X1.301600*%
%ADD17R,1.101600X1.201600*%
%ADD18R,1.601600X1.341600*%
%ADD19R,1.201600X1.801600*%
%ADD20R,3.301600X3.301600*%
%ADD21R,1.201600X1.101600*%
%ADD22R,1.001600X1.001600*%
%ADD23C,0.240406*%
%ADD24R,2.601600X2.601600*%
%ADD25C,0.801600*%
%ADD26R,2.514600X2.514600*%
%ADD27C,1.409600*%
%ADD28R,2.101600X1.101600*%
%ADD29R,1.450000X0.500000*%
%ADD30R,0.901600X1.001600*%
%ADD31R,0.901600X0.901600*%
%ADD32R,1.270000X1.701800*%
%ADD33R,0.736600X0.304800*%
%ADD34R,0.341600X1.001600*%
%ADD35R,1.001600X0.341600*%
%ADD36R,1.001600X2.001600*%
%ADD37C,1.422400*%
%ADD38C,2.286000*%
%ADD39R,1.371600X0.736600*%
%ADD40R,2.133600X2.133600*%
%ADD41C,2.133600*%
%ADD42C,1.981200*%
%ADD43C,1.101600*%
%ADD44C,3.101600*%

G36*
X470018Y12716D02*
X470018Y12716D01*
X470137Y12723D01*
X470175Y12736D01*
X470216Y12741D01*
X470326Y12784D01*
X470439Y12821D01*
X470474Y12843D01*
X470511Y12858D01*
X470607Y12928D01*
X470708Y12991D01*
X470736Y13021D01*
X470769Y13044D01*
X470845Y13136D01*
X470926Y13223D01*
X470946Y13258D01*
X470971Y13289D01*
X471022Y13397D01*
X471080Y13501D01*
X471090Y13541D01*
X471107Y13577D01*
X471129Y13694D01*
X471159Y13809D01*
X471163Y13870D01*
X471167Y13890D01*
X471165Y13910D01*
X471169Y13970D01*
X471169Y29210D01*
X471154Y29328D01*
X471147Y29447D01*
X471134Y29485D01*
X471129Y29526D01*
X471086Y29636D01*
X471049Y29749D01*
X471027Y29784D01*
X471012Y29821D01*
X470943Y29917D01*
X470879Y30018D01*
X470849Y30046D01*
X470826Y30079D01*
X470734Y30155D01*
X470647Y30236D01*
X470612Y30256D01*
X470581Y30281D01*
X470473Y30332D01*
X470369Y30390D01*
X470329Y30400D01*
X470293Y30417D01*
X470176Y30439D01*
X470061Y30469D01*
X470001Y30473D01*
X469981Y30477D01*
X469960Y30475D01*
X469900Y30479D01*
X444500Y30479D01*
X444382Y30464D01*
X444263Y30457D01*
X444225Y30444D01*
X444184Y30439D01*
X444074Y30396D01*
X443961Y30359D01*
X443926Y30337D01*
X443889Y30322D01*
X443793Y30253D01*
X443692Y30189D01*
X443664Y30159D01*
X443631Y30136D01*
X443556Y30044D01*
X443474Y29957D01*
X443454Y29922D01*
X443429Y29891D01*
X443378Y29783D01*
X443320Y29679D01*
X443310Y29639D01*
X443293Y29603D01*
X443271Y29486D01*
X443241Y29371D01*
X443237Y29311D01*
X443233Y29291D01*
X443234Y29284D01*
X443233Y29282D01*
X443234Y29266D01*
X443231Y29210D01*
X443231Y13970D01*
X443246Y13852D01*
X443253Y13733D01*
X443266Y13695D01*
X443271Y13654D01*
X443314Y13544D01*
X443351Y13431D01*
X443373Y13396D01*
X443388Y13359D01*
X443458Y13263D01*
X443521Y13162D01*
X443551Y13134D01*
X443574Y13101D01*
X443666Y13026D01*
X443753Y12944D01*
X443788Y12924D01*
X443819Y12899D01*
X443927Y12848D01*
X444031Y12790D01*
X444071Y12780D01*
X444107Y12763D01*
X444224Y12741D01*
X444339Y12711D01*
X444400Y12707D01*
X444420Y12703D01*
X444440Y12705D01*
X444500Y12701D01*
X469900Y12701D01*
X470018Y12716D01*
G37*
D10*
X498500Y325120D03*
X517500Y325120D03*
D11*
X450850Y358022D03*
X450850Y375022D03*
D10*
X331368Y835660D03*
X350368Y835660D03*
D12*
X332130Y780749D03*
X341630Y780749D03*
X351130Y780749D03*
X351130Y806751D03*
X332130Y806751D03*
D13*
X458470Y87080D03*
X458470Y50080D03*
D14*
X373220Y72560D03*
X353220Y72560D03*
D15*
X397220Y20560D03*
X329220Y20560D03*
D12*
X504850Y56849D03*
X514350Y56849D03*
X523850Y56849D03*
X523850Y82851D03*
X504850Y82851D03*
D16*
X523240Y11090D03*
X523240Y32090D03*
D17*
X504190Y13090D03*
X504190Y30090D03*
D18*
X455930Y117500D03*
X455930Y136500D03*
D17*
X481330Y74540D03*
X481330Y57540D03*
D19*
X535855Y879140D03*
X515855Y879140D03*
X495855Y879140D03*
X475855Y879140D03*
X455855Y879140D03*
X435855Y879140D03*
X415855Y879140D03*
X395855Y879140D03*
X395855Y726140D03*
X415855Y726140D03*
X435855Y726140D03*
X455855Y726140D03*
X475855Y726140D03*
X495855Y726140D03*
X515855Y726140D03*
X535855Y726140D03*
D20*
X489155Y800640D03*
D21*
X533010Y944880D03*
X516010Y944880D03*
X533010Y963930D03*
X516010Y963930D03*
X517280Y438150D03*
X534280Y438150D03*
X516500Y560070D03*
X499500Y560070D03*
D22*
X542470Y1001140D03*
X542470Y985140D03*
X501470Y985140D03*
X501470Y1001140D03*
D23*
X491306Y378966D02*
X484694Y378966D01*
X491306Y378966D02*
X491306Y377554D01*
X484694Y377554D01*
X484694Y378966D01*
X484694Y373966D02*
X491306Y373966D01*
X491306Y372554D01*
X484694Y372554D01*
X484694Y373966D01*
X484694Y368966D02*
X491306Y368966D01*
X491306Y367554D01*
X484694Y367554D01*
X484694Y368966D01*
X484694Y363966D02*
X491306Y363966D01*
X491306Y362554D01*
X484694Y362554D01*
X484694Y363966D01*
X484694Y358966D02*
X491306Y358966D01*
X491306Y357554D01*
X484694Y357554D01*
X484694Y358966D01*
X484694Y353966D02*
X491306Y353966D01*
X491306Y352554D01*
X484694Y352554D01*
X484694Y353966D01*
X496206Y349066D02*
X496206Y342454D01*
X494794Y342454D01*
X494794Y349066D01*
X496206Y349066D01*
X496206Y344738D02*
X494794Y344738D01*
X494794Y347022D02*
X496206Y347022D01*
X501206Y349066D02*
X501206Y342454D01*
X499794Y342454D01*
X499794Y349066D01*
X501206Y349066D01*
X501206Y344738D02*
X499794Y344738D01*
X499794Y347022D02*
X501206Y347022D01*
X506206Y349066D02*
X506206Y342454D01*
X504794Y342454D01*
X504794Y349066D01*
X506206Y349066D01*
X506206Y344738D02*
X504794Y344738D01*
X504794Y347022D02*
X506206Y347022D01*
X511206Y349066D02*
X511206Y342454D01*
X509794Y342454D01*
X509794Y349066D01*
X511206Y349066D01*
X511206Y344738D02*
X509794Y344738D01*
X509794Y347022D02*
X511206Y347022D01*
X516206Y349066D02*
X516206Y342454D01*
X514794Y342454D01*
X514794Y349066D01*
X516206Y349066D01*
X516206Y344738D02*
X514794Y344738D01*
X514794Y347022D02*
X516206Y347022D01*
X521206Y349066D02*
X521206Y342454D01*
X519794Y342454D01*
X519794Y349066D01*
X521206Y349066D01*
X521206Y344738D02*
X519794Y344738D01*
X519794Y347022D02*
X521206Y347022D01*
X524694Y352554D02*
X531306Y352554D01*
X524694Y352554D02*
X524694Y353966D01*
X531306Y353966D01*
X531306Y352554D01*
X531306Y357554D02*
X524694Y357554D01*
X524694Y358966D01*
X531306Y358966D01*
X531306Y357554D01*
X531306Y362554D02*
X524694Y362554D01*
X524694Y363966D01*
X531306Y363966D01*
X531306Y362554D01*
X531306Y367554D02*
X524694Y367554D01*
X524694Y368966D01*
X531306Y368966D01*
X531306Y367554D01*
X531306Y372554D02*
X524694Y372554D01*
X524694Y373966D01*
X531306Y373966D01*
X531306Y372554D01*
X531306Y377554D02*
X524694Y377554D01*
X524694Y378966D01*
X531306Y378966D01*
X531306Y377554D01*
X519794Y382454D02*
X519794Y389066D01*
X521206Y389066D01*
X521206Y382454D01*
X519794Y382454D01*
X519794Y384738D02*
X521206Y384738D01*
X521206Y387022D02*
X519794Y387022D01*
X514794Y389066D02*
X514794Y382454D01*
X514794Y389066D02*
X516206Y389066D01*
X516206Y382454D01*
X514794Y382454D01*
X514794Y384738D02*
X516206Y384738D01*
X516206Y387022D02*
X514794Y387022D01*
X509794Y389066D02*
X509794Y382454D01*
X509794Y389066D02*
X511206Y389066D01*
X511206Y382454D01*
X509794Y382454D01*
X509794Y384738D02*
X511206Y384738D01*
X511206Y387022D02*
X509794Y387022D01*
X504794Y389066D02*
X504794Y382454D01*
X504794Y389066D02*
X506206Y389066D01*
X506206Y382454D01*
X504794Y382454D01*
X504794Y384738D02*
X506206Y384738D01*
X506206Y387022D02*
X504794Y387022D01*
X499794Y389066D02*
X499794Y382454D01*
X499794Y389066D02*
X501206Y389066D01*
X501206Y382454D01*
X499794Y382454D01*
X499794Y384738D02*
X501206Y384738D01*
X501206Y387022D02*
X499794Y387022D01*
X494794Y389066D02*
X494794Y382454D01*
X494794Y389066D02*
X496206Y389066D01*
X496206Y382454D01*
X494794Y382454D01*
X494794Y384738D02*
X496206Y384738D01*
X496206Y387022D02*
X494794Y387022D01*
D24*
X508000Y365760D03*
D25*
X593090Y238310D03*
X593090Y277310D03*
D26*
X612090Y293810D03*
X612090Y221810D03*
D27*
X584090Y224810D02*
X584090Y211730D01*
X584090Y290810D02*
X584090Y303890D01*
D28*
X613090Y250310D03*
X613090Y265310D03*
D29*
X585340Y244810D03*
X585340Y251310D03*
X585340Y257810D03*
X585340Y264310D03*
X585340Y270810D03*
D10*
X331368Y859790D03*
X350368Y859790D03*
D21*
X516500Y582930D03*
X499500Y582930D03*
X499500Y605790D03*
X516500Y605790D03*
D30*
X492760Y652350D03*
X502260Y631350D03*
X483260Y631350D03*
X524510Y652350D03*
X534010Y631350D03*
X515010Y631350D03*
D21*
X350130Y736600D03*
X333130Y736600D03*
D31*
X572770Y685800D03*
X557530Y685800D03*
D32*
X464820Y21590D03*
X449580Y21590D03*
D33*
X457200Y21590D03*
D34*
X510500Y465870D03*
D35*
X521000Y471370D03*
X521000Y476370D03*
X521000Y481370D03*
X521000Y486370D03*
X521000Y491370D03*
X521000Y496370D03*
D34*
X510500Y501870D03*
X505500Y501870D03*
D35*
X495000Y496370D03*
X495000Y491370D03*
X495000Y486370D03*
X495000Y481370D03*
X495000Y476370D03*
X495000Y471370D03*
D34*
X505500Y465870D03*
D36*
X508000Y483870D03*
D37*
X198374Y267970D02*
X185166Y267970D01*
X185166Y242570D02*
X198374Y242570D01*
X198374Y115570D02*
X185166Y115570D01*
X185166Y90170D02*
X198374Y90170D01*
X198374Y217170D02*
X185166Y217170D01*
X185166Y191770D02*
X198374Y191770D01*
X198374Y140970D02*
X185166Y140970D01*
X185166Y166370D02*
X198374Y166370D01*
X261366Y90170D02*
X274574Y90170D01*
X274574Y115570D02*
X261366Y115570D01*
X261366Y140970D02*
X274574Y140970D01*
X274574Y166370D02*
X261366Y166370D01*
X261366Y191770D02*
X274574Y191770D01*
X274574Y217170D02*
X261366Y217170D01*
X261366Y242570D02*
X274574Y242570D01*
X274574Y267970D02*
X261366Y267970D01*
D21*
X516500Y537210D03*
X499500Y537210D03*
X384420Y471170D03*
X367420Y471170D03*
D16*
X424520Y471170D03*
X403520Y471170D03*
D10*
X479450Y438150D03*
X498450Y438150D03*
D37*
X198374Y572770D02*
X185166Y572770D01*
X185166Y547370D02*
X198374Y547370D01*
X198374Y420370D02*
X185166Y420370D01*
X185166Y394970D02*
X198374Y394970D01*
X198374Y521970D02*
X185166Y521970D01*
X185166Y496570D02*
X198374Y496570D01*
X198374Y445770D02*
X185166Y445770D01*
X185166Y471170D02*
X198374Y471170D01*
X261366Y394970D02*
X274574Y394970D01*
X274574Y420370D02*
X261366Y420370D01*
X261366Y445770D02*
X274574Y445770D01*
X274574Y471170D02*
X261366Y471170D01*
X261366Y496570D02*
X274574Y496570D01*
X274574Y521970D02*
X261366Y521970D01*
X261366Y547370D02*
X274574Y547370D01*
X274574Y572770D02*
X261366Y572770D01*
D21*
X384420Y509270D03*
X367420Y509270D03*
D16*
X424520Y509270D03*
X403520Y509270D03*
D21*
X384420Y274320D03*
X367420Y274320D03*
D16*
X424520Y274320D03*
X403520Y274320D03*
D21*
X384420Y312420D03*
X367420Y312420D03*
D16*
X424520Y312420D03*
X403520Y312420D03*
D21*
X384420Y350520D03*
X367420Y350520D03*
D16*
X424520Y350520D03*
X403520Y350520D03*
D21*
X384420Y388620D03*
X367420Y388620D03*
D16*
X424520Y388620D03*
X403520Y388620D03*
D21*
X384420Y547370D03*
X367420Y547370D03*
D16*
X424520Y547370D03*
X403520Y547370D03*
D37*
X198374Y877570D02*
X185166Y877570D01*
X185166Y852170D02*
X198374Y852170D01*
X198374Y725170D02*
X185166Y725170D01*
X185166Y699770D02*
X198374Y699770D01*
X198374Y826770D02*
X185166Y826770D01*
X185166Y801370D02*
X198374Y801370D01*
X198374Y750570D02*
X185166Y750570D01*
X185166Y775970D02*
X198374Y775970D01*
X261366Y699770D02*
X274574Y699770D01*
X274574Y725170D02*
X261366Y725170D01*
X261366Y750570D02*
X274574Y750570D01*
X274574Y775970D02*
X261366Y775970D01*
X261366Y801370D02*
X274574Y801370D01*
X274574Y826770D02*
X261366Y826770D01*
X261366Y852170D02*
X274574Y852170D01*
X274574Y877570D02*
X261366Y877570D01*
D21*
X384420Y585470D03*
X367420Y585470D03*
D16*
X424520Y585470D03*
X403520Y585470D03*
D38*
X509778Y194050D02*
X531622Y194050D01*
X550700Y156972D02*
X550700Y135128D01*
X490700Y135128D02*
X490700Y156972D01*
D39*
X337820Y463042D03*
X337820Y471170D03*
X337820Y479298D03*
X337820Y517398D03*
X337820Y509270D03*
X337820Y501142D03*
X337820Y555498D03*
X337820Y547370D03*
X337820Y539242D03*
X337820Y593598D03*
X337820Y585470D03*
X337820Y577342D03*
D40*
X590550Y374650D03*
D41*
X590550Y409650D03*
X590550Y444650D03*
X590550Y479650D03*
D40*
X463550Y971550D03*
D41*
X428550Y971550D03*
X393550Y971550D03*
X358550Y971550D03*
D42*
X48768Y801370D02*
X29972Y801370D01*
X29972Y775970D02*
X48768Y775970D01*
X48768Y750570D02*
X29972Y750570D01*
X29972Y725170D02*
X48768Y725170D01*
X48768Y598170D02*
X29972Y598170D01*
X29972Y572770D02*
X48768Y572770D01*
X48768Y547370D02*
X29972Y547370D01*
X29972Y521970D02*
X48768Y521970D01*
X48768Y699770D02*
X29972Y699770D01*
X29972Y674370D02*
X48768Y674370D01*
X48768Y648970D02*
X29972Y648970D01*
X29972Y623570D02*
X48768Y623570D01*
D12*
X498500Y234649D03*
X508000Y234649D03*
X517500Y234649D03*
X517500Y260651D03*
X498500Y260651D03*
D10*
X517500Y299720D03*
X498500Y299720D03*
D42*
X48768Y496570D02*
X29972Y496570D01*
X29972Y471170D02*
X48768Y471170D01*
X48768Y445770D02*
X29972Y445770D01*
X29972Y420370D02*
X48768Y420370D01*
X48768Y394970D02*
X29972Y394970D01*
X29972Y369570D02*
X48768Y369570D01*
X48768Y344170D02*
X29972Y344170D01*
X29972Y318770D02*
X48768Y318770D01*
D39*
X457200Y251714D03*
X457200Y243586D03*
D40*
X590550Y527050D03*
D41*
X590550Y562050D03*
X590550Y597050D03*
X590550Y632050D03*
D40*
X118110Y942340D03*
D41*
X118110Y907340D03*
X118110Y872340D03*
X118110Y837340D03*
D40*
X118110Y789940D03*
D41*
X118110Y754940D03*
X118110Y719940D03*
X118110Y684940D03*
D40*
X118110Y637540D03*
D41*
X118110Y602540D03*
X118110Y567540D03*
X118110Y532540D03*
D40*
X118110Y485140D03*
D41*
X118110Y450140D03*
X118110Y415140D03*
X118110Y380140D03*
D40*
X118110Y332740D03*
D41*
X118110Y297740D03*
X118110Y262740D03*
X118110Y227740D03*
D42*
X48768Y293370D02*
X29972Y293370D01*
X29972Y267970D02*
X48768Y267970D01*
X48768Y242570D02*
X29972Y242570D01*
X29972Y217170D02*
X48768Y217170D01*
D40*
X118110Y180340D03*
D41*
X118110Y145340D03*
X118110Y110340D03*
X118110Y75340D03*
D42*
X48768Y191770D02*
X29972Y191770D01*
X29972Y166370D02*
X48768Y166370D01*
X48768Y140970D02*
X29972Y140970D01*
X29972Y115570D02*
X48768Y115570D01*
D40*
X311150Y971550D03*
D41*
X276150Y971550D03*
X241150Y971550D03*
X206150Y971550D03*
D42*
X48768Y826770D02*
X29972Y826770D01*
X29972Y852170D02*
X48768Y852170D01*
X48768Y877570D02*
X29972Y877570D01*
X29972Y902970D02*
X48768Y902970D01*
D43*
X622300Y927100D03*
X95250Y19050D03*
D44*
X595630Y975360D03*
X41910Y40640D03*
X595630Y40640D03*
X41910Y975360D03*
D18*
X457200Y168300D03*
X457200Y187300D03*
D17*
X535940Y239150D03*
X535940Y256150D03*
D42*
X353568Y699770D02*
X334772Y699770D01*
X334772Y674370D02*
X353568Y674370D01*
X353568Y648970D02*
X334772Y648970D01*
X334772Y623570D02*
X353568Y623570D01*
M02*
