M48
;GenerationSoftware,Autodesk,EAGLE,9.5.2*%
;CreationDate,2020-03-20T01:09:49Z*%
FMAT,2
ICI,OFF
METRIC,TZ,000.000
T9C0.406
T8C0.700
T7C0.800
T6C0.813
T5C0.900
T4C1.000
T3C1.118
T2C1.200
T1C3.000
%
G90
M71
T1
X4191Y97536
X59563Y97536
X4191Y4064
X59563Y4064
T2
X39355Y97155
X59055Y37465
X11811Y11034
X35855Y97155
X20615Y97155
X42855Y97155
X46355Y97155
X59055Y47965
X59055Y44465
X24115Y97155
X11811Y78994
X11811Y45014
X59055Y40965
X27615Y97155
X31115Y97155
X11811Y7534
X11811Y14534
X11811Y18034
X11811Y22774
X11811Y26274
X11811Y29774
X11811Y33274
X11811Y38014
X11811Y41514
X11811Y48514
X11811Y53254
X11811Y56754
X11811Y60254
X11811Y63754
X11811Y68494
X11811Y71994
X11811Y75494
X11811Y83734
X11811Y87234
X11811Y90734
X11811Y94234
X59055Y63205
X59055Y59705
X59055Y56205
X59055Y52705
T3
X3937Y11557
X3937Y14097
X3937Y16637
X3937Y19177
X3937Y44577
X3937Y47117
X3937Y49657
X3937Y21717
X3937Y24257
X3937Y26797
X3937Y29337
X3937Y62357
X3937Y64897
X3937Y67437
X3937Y54737
X3937Y57277
X3937Y59817
X3937Y72517
X3937Y75057
X3937Y77597
X3937Y80137
X3937Y69977
X3937Y52197
X34417Y62357
X34417Y64897
X3937Y82677
X34417Y67437
X34417Y69977
X3937Y90297
X3937Y87757
X3937Y85217
X3937Y36957
X3937Y39497
X3937Y42037
X3937Y31877
X3937Y34417
T4
X49070Y14605
T5
X61209Y22181
X61209Y29381
T6
X26797Y24257
X26797Y26797
X19177Y57277
X19177Y54737
X19177Y42037
X19177Y39497
X19177Y52197
X19177Y49657
X19177Y44577
X19177Y47117
X26797Y39497
X26797Y42037
X26797Y44577
X26797Y47117
X26797Y49657
X26797Y52197
X26797Y54737
X26797Y57277
X19177Y87757
X19177Y85217
X19177Y72517
X19177Y82677
X19177Y80137
X19177Y75057
X19177Y77597
X26797Y69977
X26797Y72517
X26797Y75057
X26797Y77597
X26797Y80137
X26797Y82677
X26797Y85217
X26797Y87757
X19177Y19177
X19177Y26797
X19177Y24257
X19177Y11557
X19177Y9017
X19177Y21717
X19177Y69977
X19177Y14097
X19177Y16637
X26797Y9017
X26797Y11557
X26797Y14097
X26797Y16637
X26797Y19177
X26797Y21717
T7
X58409Y29081
X58409Y22481
X52070Y19405
X55070Y14605
T8
X59309Y27731
X59309Y23831
T9
X53340Y33020
X50800Y27305
X50800Y21590
X51435Y4445
X48895Y2540
X36195Y3175
X42545Y10795
X43815Y13335
X54610Y27305
X33802Y12212
X29210Y10795
X45720Y31115
X60325Y46355
X55626Y45339
X46990Y56515
X42452Y36830
X42545Y52705
X42545Y48895
X42545Y56515
X51050Y52070
X34925Y88265
X33655Y75565
X37465Y1270
X42545Y1270
X6985Y85725
X16510Y86995
X31115Y86360
X36830Y68580
X53585Y91685
X47625Y67945
X57150Y66040
X53340Y41910
X62865Y66675
X29845Y33020
X16510Y46990
X8890Y69850
X13970Y69850
X52705Y27305
X48895Y27305
X53340Y67310
X40640Y69215
X30480Y48260
X31750Y46990
X46355Y45085
X37465Y29210
X16510Y24130
X44450Y45720
X37465Y36830
X47625Y46355
X37465Y33020
X16510Y22225
X16510Y76200
X16510Y81280
X31115Y57150
X31115Y60960
X62230Y34290
X31115Y71120
X47625Y28575
X23495Y41910
X14605Y26670
X7620Y22860
X57150Y50165
X53975Y39370
X60960Y43180
X46990Y39370
X57150Y19685
X54610Y10160
X56515Y24765
X47625Y31750
X7620Y47625
X45720Y43815
X37465Y25400
X46355Y48895
X52197Y45593
X46355Y50800
X53975Y52070
X48260Y91440
X46355Y53340
X53975Y46355
X46355Y55245
X55245Y48260
X48260Y1270
X52705Y4445
X55880Y63500
X60960Y66675
X51435Y41910
X41910Y66675
X44450Y91440
X42545Y91440
X42545Y68580
X46355Y91440
X55245Y66675
X53975Y55245
X40640Y65405
X46990Y69850
X49530Y69850
X40640Y63500
X53340Y61595
X52832Y58293
X55880Y53340
X49530Y41910
X54610Y59055
X55245Y41910
X56515Y26035
X46990Y35560
X56515Y27305
X46990Y37465
M30